<?xml version='1.0' encoding='utf-8'?>
<svg xmlns:xlink="http://www.w3.org/1999/xlink" xmlns="http://www.w3.org/2000/svg" width="31mm" height="30mm" version="1.1" viewBox="0 0 109.84 106.3"> <defs> <linearGradient id="c"> <stop stop-color="#ffd1bb" offset="0"/> <stop stop-color="#ffd1bb" stop-opacity=".85098" offset=".40789"/> <stop stop-color="#b49687" stop-opacity=".72549" offset="1"/> </linearGradient> <linearGradient id="d"> <stop offset="0"/> <stop stop-color="#301715" offset=".68232"/> <stop stop-color="#723f3a" offset="1"/> </linearGradient> <linearGradient id="e"> <stop stop-color="#2b0e00" offset="0"/> <stop stop-color="#d14400" offset=".44913"/> <stop stop-color="#ffa57a" offset=".69918"/> <stop stop-color="#ffa57a" offset="1"/> </linearGradient> <pattern id="q" patternTransform="scale(.75458 .80761)" xlink:href="#a"/> <pattern id="r" patternTransform="scale(.52477)" xlink:href="#a"/> <pattern id="s" patternTransform="matrix(.59548 0 0 .75458 -76.368 -25.633)" xlink:href="#a"/> <pattern id="t" patternTransform="scale(.5778 .63084)" xlink:href="#a"/> <pattern id="u" patternTransform="scale(.48941 .61316)" xlink:href="#a"/> <pattern id="v" patternTransform="scale(.63084 .66619)" xlink:href="#a"/> <pattern id="w" patternTransform="scale(.50709 .52477)" xlink:href="#a"/> <pattern id="x" patternTransform="scale(.68387 .77226)" xlink:href="#a"/> <pattern id="y" patternTransform="scale(.5778 .48941)" xlink:href="#a"/> <pattern id="z" patternTransform="scale(.56012 .61316)" xlink:href="#a"/> <pattern id="ag" patternTransform="matrix(-.57839 .42749 -1.5833 -2.1422 1.149 -.26517)" xlink:href="#b"/> <pattern id="af" patternTransform="matrix(-.46264 .32544 -1.28 -1.8197 0 0)" xlink:href="#b"/> <pattern id="f" patternTransform="matrix(.27763 .56646 -1.3601 .66662 0 0)" xlink:href="#b"/> <pattern id="b" width="3" height="1" patternTransform="translate(0) scale(10)" patternUnits="userSpaceOnUse"> <rect y="-.5" width="1" height="2"/> </pattern> <pattern id="g" patternTransform="scale(.56012 .56896)" xlink:href="#a"/> <pattern id="h" patternTransform="scale(.5778 .4629)" xlink:href="#a"/> <pattern id="a" width="10" height="10" patternTransform="translate(0) scale(10)" patternUnits="userSpaceOnUse"> <circle cx="2.567" cy=".81" r=".45"/> <circle cx="3.048" cy="2.33" r=".45"/> <circle cx="4.418" cy="2.415" r=".45"/> <circle cx="1.844" cy="3.029" r=".45"/> <circle cx="6.08" cy="1.363" r=".45"/> <circle cx="5.819" cy="4.413" r=".45"/> <circle cx="4.305" cy="4.048" r=".45"/> <circle cx="5.541" cy="3.045" r=".45"/> <circle cx="4.785" cy="5.527" r=".45"/> <circle cx="2.667" cy="5.184" r=".45"/> <circle cx="7.965" cy="1.448" r=".45"/> <circle cx="7.047" cy="5.049" r=".45"/> <circle cx="4.34" cy=".895" r=".45"/> <circle cx="7.125" cy=".34" r=".45"/> <circle cx="9.553" cy="1.049" r=".45"/> <circle cx="7.006" cy="2.689" r=".45"/> <circle cx="8.909" cy="2.689" r=".45"/> <circle cx="9.315" cy="4.407" r=".45"/> <circle cx="7.82" cy="3.87" r=".45"/> <circle cx="8.27" cy="5.948" r=".45"/> <circle cx="7.973" cy="7.428" r=".45"/> <circle cx="9.342" cy="8.072" r=".45"/> <circle cx="8.206" cy="9.315" r=".45"/> <circle cx="9.682" cy="9.475" r=".45"/> <circle cx="9.688" cy="6.186" r=".45"/> <circle cx="3.379" cy="6.296" r=".45"/> <circle cx="2.871" cy="8.204" r=".45"/> <circle cx="4.59" cy="8.719" r=".45"/> <circle cx="3.181" cy="9.671" r=".45"/> <circle cx="5.734" cy="7.315" r=".45"/> <circle cx="6.707" cy="6.513" r=".45"/> <circle cx="5.73" cy="9.67" r=".45"/> <circle cx="6.535" cy="8.373" r=".45"/> <circle cx="4.37" cy="7.154" r=".45"/> <circle cx=".622" cy="7.25" r=".45"/> <circle cx=".831" cy="5.679" r=".45"/> <circle cx="1.257" cy="8.519" r=".45"/> <circle cx="1.989" cy="6.877" r=".45"/> <circle cx=".374" cy="3.181" r=".45"/> <circle cx="1.166" cy="1.664" r=".45"/> <circle cx="1.151" cy=".093" r=".45"/> <circle cx="1.151" cy="10.093" r=".45"/> <circle cx="1.302" cy="4.451" r=".45"/> <circle cx="3.047" cy="3.763" r=".45"/> </pattern> <radialGradient id="p" cx="11.08" cy="8.7461" r="8.4838" gradientTransform="matrix(.99942 -.033949 .031255 .92012 -.26579 .54498)" gradientUnits="userSpaceOnUse"> <stop stop-color="#f04e00" offset="0"/> <stop stop-color="#ff8144" offset=".44913"/> <stop stop-color="#ffa57a" offset=".69918"/> <stop stop-color="#ffa57a" offset="1"/> </radialGradient> <radialGradient id="o" cx="64.437" cy="22.101" r="7.9595" gradientTransform="matrix(.91464 -1.0197 1.671 1.4989 -31.218 54.195)" gradientUnits="userSpaceOnUse" xlink:href="#e"/> <radialGradient id="n" cx="114.51" cy="26.699" r="9.1299" gradientTransform="matrix(2.4506 -1.1095 .59082 1.305 -206.45 115.36)" gradientUnits="userSpaceOnUse" xlink:href="#e"/> <radialGradient id="m" cx="79.351" cy="45.576" r="1.9224" gradientTransform="matrix(1 0 0 .82763 0 7.8562)" gradientUnits="userSpaceOnUse" xlink:href="#d"/> <radialGradient id="l" cx="84.499" cy="45.532" r="1.9224" gradientTransform="matrix(1 0 0 .82763 0 7.8486)" gradientUnits="userSpaceOnUse" xlink:href="#d"/> <radialGradient id="k" cx="104.91" cy="96.954" r="11.645" gradientTransform="matrix(1.1608 .019965 -.010734 .62412 -86.208 -6.9176)" gradientUnits="userSpaceOnUse" xlink:href="#c"/> <radialGradient id="j" cx="114.79" cy="70.119" r="12.907" gradientTransform="matrix(1.2984 -.07535 .03915 .6746 -85.743 24.285)" gradientUnits="userSpaceOnUse" xlink:href="#c"/> <linearGradient id="i" x1="70.825" x2="84.901" y1="50.491" y2="42.46" gradientUnits="userSpaceOnUse"> <stop stop-color="#a8806c" offset="0"/> <stop stop-color="#d0997e" offset=".28742"/> <stop stop-color="#d15358" offset=".31652"/> <stop stop-color="#d15358" offset="1"/> </linearGradient> </defs> <g transform="translate(2.9628 1.111)"> <g fill-rule="evenodd"> <path d="m11.562 1.7988c-2.3909-0.12024-5.0127 1.6302-6.125 3.75-1.0567 2.0139 0.375 6.8125 0.375 6.8125l-2.875-0.5625c-0.884 0.61054-2.2377 0.96816-1.0625 2.6875l4.875 0.9375c0.51778 2.0977 0.9304 4.2584 2.25 5.875l2.875-2.3125-1.1875-4s4.5804-0.99104 5.9375-2.6875c1.2226-1.5283 1.8744-3.9174 1.1875-5.75-0.91846-2.4502-3.6366-4.6186-6.25-4.75zm0.92578 4.0332c0.35218 0.02408 0.6784 0.13035 0.94922 0.3418 0.95242 0.74362 0.66752 2.6178 0 3.625-0.97474 1.4708-4.875 2.0625-4.875 2.0625s-0.21447-3.5301 0.875-4.6875c0.70652-0.75056 1.9942-1.414 3.0508-1.3418z" fill="url(#p)" stroke="#00f" stroke-width=".29055"/> <path d="m11.016 1.0957c-3.4518 0.36454-5.2159 1.5689-6.3054 4.9831-0.41991 1.3159-0.075577 4.0221 0.34878 5.4627-1.3348-0.3718-2.9532-0.58409-3.5668-0.01804-1.5439 1.4243-1.0068 2.6345 0.71094 3.6211 0.86409 0.49632 2.0186 0.81231 3.9492 0.7773 0.65701 2.2126 1.559 5.5982 2.668 7.0059l3.9687-3.9238c-0.52426-0.94735-0.87075-2.7188-1.3809-3.6738 2.3664-0.64912 4.9608-1.3554 6.1805-3.5248 1.6202-2.8816 1.6826-5.6325-0.4406-8.2266-1.6689-2.039-3.5742-2.7532-6.1325-2.483zm-0.71841 14.431c0.62611 1.1507 1.0723 2.4204 0.90005 3.2042l-1.7305 1.5703c-1.051-0.9898-1.5028-2.8208-1.7797-4.465 0.80572 0.068936 1.7229-0.13408 2.6101-0.30951zm-6.7874-1.2138c-1.8352-0.47046-0.82629-1.9256 0.25586-1.8418 1.0557 0.08172 2.0242 0.52395 3.082 0.48238 1.4422-0.05667 2.6227-0.39252 3.7773-0.92681 1.3055-0.6041 1.5646-0.63328 2.7617-1.4449 1.1358-0.77006 1.6483-2.3532 1.3591-3.6144-0.25105-1.0949-2.0171-1.9517-2.9958-1.8381-1.5926 0.18494-3.1839 1.7172-3.5385 3.4622-0.16715 0.82261-0.090158 2.0002 0.020015 2.6465-0.56129 0.32322-1.1108 0.49965-1.9633 0.40331-0.15175-1.3241-0.31215-3.3183-0.22952-4.1764 0.31711-3.2931 2.2737-4.4735 5.3245-4.8571 2.2677-0.28512 4.2611 1.1052 5.3609 3.1989 1.0165 1.935 0.38281 4.1853-1.0116 6.0435-1.3321 1.7751-3.7187 2.2105-5.8245 2.6171-2.2436 0.43312-4.6787 0.28135-6.3783-0.15435zm8.9316-7.4219c1.3176 0.65671 0.42175 2.331 0.24408 2.4521-0.57946 0.39489-1.5023 1.0854-3.5782 1.7135-0.18216-1.1835 0.75613-3.3229 1.582-3.9773 0.19262-0.15265 1.0777-0.52441 1.7522-0.18824z" color="#000000" color-rendering="auto" fill="#a27864" image-rendering="auto" shape-rendering="auto" solid-color="#000000" style="block-progression:tb;isolation:auto;mix-blend-mode:normal;text-decoration-color:#000000;text-decoration-line:none;text-decoration-style:solid;text-indent:0;text-transform:none;white-space:normal"/> </g> <path d="m34.25 11.174c-7.5021 0.3528-15.833 2.056-21.375 7.125-5.4662 4.9999-8.5453 12.974-8.875 20.375-0.40467 9.0825 8.625 25.875 8.625 25.875-2.0236 1.0775-3.9602 2.2276-5 4.125l-0.0625 2.375-1.5 1.5625c-0.82234 0.8397-1.6185 1.6846-1.625 2.6875 1.0303 0.90342 1.7322 0.82163 2.4375 0.75l2.625-1.5 1.5 1.5625-0.6875 4.25c1.2468 1.6779 2.9829 2.2792 5.0625 2.125l0.75 5.125c0.47917 1.3296 0.95833 1.1267 1.4375 1l1.6875-3 1.5625 0.375 0.6875 5.0625c0.39786 0.81032 2.3318 0.89779 5.5625 0.375l-0.25-3.0625 1.8125 2.4375 2.375-0.4375c-0.10813-1.2688 0.23501-3.3281-3.3125-6.6875l-0.5625-2-3.625-5.6875-0.6875-11.25 4.5-3.5625 9.5 2.8125 9.1875 0.9375 1.3125 4.4375c0.76113 6.9996 3.1832 9.4908 5 13.625 0.40663 2.831-0.01259 5.0426-0.9375 6.875-0.34152 1.5726-1.1157 3.207-0.375 4.625l3.25-1.0625c-1.3271 3.0843-0.19024 5.2609 1.625 7.1875 1.1375 0.74179 1.8629 0.0409 2.6875-0.3125l0.4375-2.75c0.81464 1.2356 1.4001 1.7836 2.0625 2.5625 1.5707-0.32919 1.4859-0.89487 2-1.375 0.26188-1.6091 0.67441-3.1932-1-5.125l-0.8125-3.5625 1.375-0.1875 2.125-1.6875 0.1875 5.25c0.87323 1.2193 2.1684 2.165 5.5625 1.75l1.0625-1.4375c1.8855 1.0163 2.2609 0.35473 2.6875-0.25 0.46293-0.93903 0.24504-1.6511 0.25-2.4375l-1.3125-4.375c0.48973-2.1345-0.55224-3.7121-1.875-5.1875 0 0 0.62431-4.5513 1.8125-6.4375 1.9513-3.0976 5.7567-4.5693 8.25-7.25 1.6913-1.8184 4.5-5.9375 4.5-5.9375 0.98697-1.4394 0.98751-4.8859 0.4375-6.9375 2.3193-1.7015 4.3408-3.7009 5.5-6.5625 0.64154-1.5837 1.2173-5.7165-1.375-9.375v-7.875s3.0208 0.59586 4.8125-0.3125c1.5167-0.76898 4.6141-4.631 5.9375-7.0625 1.2373-2.2733 2.1984-4.2127 2.9375-7.1875 0.25574-1.0294-0.0486-1.6885-1.0625-2-2.6788-0.82309-6.254 0.76024-9.0488 1.6191-2.1764 0.66885-4.7722 0.20583-6.8262 0.94336-1.676 0.6018-2.4752 1.917-4.25 2.0625-2.6398 0.21643-5.2888-2.1172-7.9375-2.125-2.1807-0.0064-6.1875 2.125-6.1875 2.125-4.0961-3.1539-8.3036-6.1964-14.688-7.0625l-1 3.4375s-12.424-4.6784-18.875-4.375zm31.312 58.062-1.9375 5.25 0.3125 3.375-2.5625 6.5c-0.11532-3.7912-0.24614-7.572 0.125-11.688l1.0625-2.75 3-0.6875z" fill="#ffd1bb" fill-rule="evenodd" stroke="#f00" stroke-width=".29055"/> <path d="m8.1049 71.724c-0.76471-0.33596-1.6908 0.78011-2.5633 1.4142-0.30627 0.84551-0.95579 1.8626-0.61872 2.3865 1.0312 1.1798 2.0624 0.82896 3.0936 0.26516l2.0329-1.5026z" fill="#c8bea9" fill-rule="evenodd" stroke="#f00" stroke-width=".29055"/> <path d="m10.656 76.404 5.2149 0.88388-0.53033 4.8614-5.6569-1.8562z" fill="#c8bea9" fill-rule="evenodd" stroke="#f00" stroke-width=".29055"/> <path d="m23.206 58.369-0.39775 7.0711c-0.41494-0.41494 4.8002-4.1712 5.2591-3.6239-0.1597-0.11402-4.4588-4.051-4.8614-3.4471z" fill="#cd8e71" fill-rule="evenodd" stroke="#f0f" stroke-width=".29055"/> <path d="m12.825 64.29c-2.2678 0.75214-3.7823 2.2576-4.9939 4.0659-0.35184 0.96302-0.39915 2.0276-0.04419 3.2262 1.0518 0.35504 1.7765 1.3098 2.1213 2.961 1.8788 2.2855 4.0416 2.0157 6.143 2.2981l-4.3752-5.8336c0.0745-1.9564-0.25554-3.5419 1.149-6.7175z" fill="#cd8e71" fill-rule="evenodd" stroke="#f00" stroke-width=".29055"/> <path d="m86.534 54.867-0.26516 6.1872c-1.542 2.6331-3.1032 5.2684-6.7175 8.1317-2.9155 2.2985-5.6403 4.6606-7.1594 7.4246-0.65686 1.5591-1.3714 3.1413-0.88389 4.2426 1.3884 1.7814 2.8495 3.541 1.9446 6.0104l-2.8284 0.26517-2.3865 1.1491c-1.2374-0.41195-2.4749-1.4957-3.7123-0.61872l-1.149-2.6517-1.3258-0.61872 1.9445-6.7175-0.0884-3.2704 1.591-5.4801 5.0381 1.4142 4.773-1.9445z" fill="#cd8e71" fill-rule="evenodd" stroke="#f00" stroke-width=".29055"/> <path d="m86.264 22.279c-0.14913-1.4833 0.99823-2.0159 2.6075-2.2097l6.4082-0.53033 4.6404-2.961 2.8726-1.149c0.63504-0.0052 1.9667-0.27849 1.1932 1.7678l-2.9168 7.3362-4.773 5.5685c-1.3103 0.91183-3.0049 1.0202-5.8336 0.53033l-0.26517-3.0936c0.90094-2.1826-0.86108-1.7022-1.9445-1.9004z" fill="url(#n)" fill-rule="evenodd" stroke="#f00" stroke-width=".29055"/> <path d="m7.8666 71.651c-0.76471-0.33596-1.6908 0.78011-2.5633 1.4142-0.30627 0.84551-0.95579 1.8626-0.61872 2.3865 1.0312 1.1798 2.0624 0.82896 3.0936 0.26516l2.0329-1.5026z" fill="url(#t)" fill-rule="evenodd" opacity=".294" stroke="#f00" stroke-width=".29055"/> <path d="m10.96 76.336 5.2149 0.88388-0.53033 4.8614-5.6569-1.8562z" fill="url(#u)" fill-rule="evenodd" opacity=".283" stroke="#f00" stroke-width=".29055"/> <path d="m61.222 85.25c1.1587-0.56901 2.0526-0.0785 2.74 1.2374-0.25019 1.3556-0.58205 2.6132-1.4142 3.2704-0.01382 0.13816-0.66448 0.55874-0.97227-0.17678-0.19639-0.4693-0.71542-3.8141-0.35355-4.331z" fill="#c8bea9" fill-rule="evenodd" stroke="#f00" stroke-width=".29055"/> <path d="m61.165 85.44c1.1587-0.56901 2.0526-0.0785 2.74 1.2374-0.25019 1.3556-0.58205 2.6132-1.4142 3.2704-0.01382 0.13816-0.66448 0.55874-0.97227-0.17678-0.19639-0.4693-0.71542-3.8141-0.35355-4.331z" fill="url(#x)" fill-rule="evenodd" opacity=".302" stroke="#f00" stroke-width=".29055"/> <path d="m64.748 87.927-0.17678 5.1265c1.6766 1.3789 3.4085 2.6541 6.0104 2.2981l1.0165-2.2097c0.81436 0.48072 1.6776 1.4352 2.6075 0.53033 0.46206-1.0891 0.73082-2.2134-0.08839-3.5355l-1.591-2.74-2.2981 0.26516-2.2097 1.0607z" fill="#c8bea9" fill-rule="evenodd" stroke="#f00" stroke-width=".29055"/> <path d="m64.877 87.914-0.17678 5.1265c1.6766 1.3789 3.4085 2.6541 6.0104 2.2981l1.0165-2.2097c0.81436 0.48071 1.6776 1.4352 2.6075 0.53033 0.46206-1.0891 0.73082-2.2134-0.08839-3.5355l-1.591-2.74-2.2981 0.26516-2.2097 1.0607z" fill="url(#z)" fill-rule="evenodd" opacity=".307" stroke="#f00" stroke-width=".29055"/> <path d="m55.13 67.885c1.4281 1.0468 2.7067 2.243 5.0381 2.3865l5.8336-1.8562 4.9497 0.97227c3.5852 0.0276 4.1715-1.6108 5.8336-2.6517 1.9036-1.8531 4.2845-4.853 4.1542-8.1317 0 0-5.6108 5.6754-9.8995 7.2478-2.172 0.79637-4.8106-0.2095-6.8943 0.7955-3.9424 1.9015-9.0156 1.2374-9.0156 1.2374z" fill="url(#j)" fill-rule="evenodd"/> <path d="m86.355 55.211-0.26516 6.1872c-1.5419 2.6331-3.1032 5.2684-6.7175 8.1317-2.9155 2.2985-5.6403 4.6606-7.1595 7.4246-0.65685 1.5591-1.3714 3.1413-0.88388 4.2426 1.3883 1.7814 2.8495 3.541 1.9445 6.0104l-2.8284 0.26517-2.3865 1.149c-1.2374-0.41194-2.4749-1.4957-3.7123-0.61872l-1.149-2.6517-1.3258-0.61872 1.9445-6.7175-0.08839-3.2704 1.591-5.4801 5.0381 1.4142 4.773-1.9445z" fill="url(#f)" fill-rule="evenodd" opacity=".312" stroke="#f00" stroke-width=".29055"/> <path d="m55.243 68.469c1.4281 1.0468 2.7067 2.243 5.0381 2.3865l5.8336-1.8562 4.9497 0.97227c3.5852 0.0276 4.1715-1.6108 5.8336-2.6517 1.9036-1.8531 4.2845-4.853 4.1543-8.1317 0 0-5.6108 5.6754-9.8995 7.2478-2.1719 0.79637-4.8107-0.2095-6.8943 0.7955-3.9424 1.9015-9.0156 1.2374-9.0156 1.2374z" fill="url(#g)" fill-rule="evenodd" opacity=".302"/> <path d="m24.902 53.384c3.5934 1.2208 7.1334 3.4171 10.641 3.2276 3.0426-0.16443 6.0611-2.5835 9.0693-3.316l-0.26517 5.6127c-0.23089 0.27707 1.6158 5.499 2.2097 6.6733-1.2056-0.53148-3.6822-1.386-3.7565-1.2374l-7.9992-1.0607-8.0875-2.961-3.4471-3.2262z" fill="url(#k)" fill-rule="evenodd"/> <path d="m24.881 53.576c3.5934 1.2208 7.1334 3.4171 10.641 3.2276 3.0426-0.16443 6.0611-2.5835 9.0693-3.316l-0.26516 5.6127c-0.2309 0.27707 1.6158 5.499 2.2097 6.6733-1.2056-0.53148-3.6822-1.386-3.7565-1.2374l-7.9991-1.0607-8.0875-2.961-3.4471-3.2262z" fill="url(#h)" fill-rule="evenodd" opacity=".31"/> <path d="m23.158 57.907-0.39775 7.0711c-0.41494-0.41494 4.8002-4.1712 5.2591-3.6239-0.15969-0.11402-4.4588-4.051-4.8614-3.4471z" fill="url(#ag)" fill-rule="evenodd" opacity=".294" stroke="#f0f" stroke-width=".29055"/> <path d="m12.595 64.58c-2.2678 0.75214-3.7823 2.2576-4.9939 4.0659-0.35184 0.96302-0.39915 2.0276-0.044194 3.2262 1.0518 0.35504 1.7765 1.3098 2.1213 2.961 1.8788 2.2855 4.0416 2.0157 6.143 2.2981l-4.3752-5.8336c0.0745-1.9564-0.25554-3.5419 1.149-6.7175z" fill="url(#af)" fill-rule="evenodd" opacity=".294" stroke="#f00" stroke-width=".29055"/> <path d="m76.82 49.213c-1.6182-1.1014-1.2053-2.372-1.5468-3.5797-0.0549-1.5481 1.3325-2.5194 2.3865-3.6239 1.4929-0.55683 2.2609-2.1485 3.6681-2.2097 1.2346-0.18992 1.9563 0.81719 2.8726 1.37 1.6598 0.56557 2.8106 1.7421 3.8891 3.0052 0.29187 1.6794-0.35535 3.3588-2.6516 5.0381-0.18487 0.82995-0.33003 1.6457-2.1213 3.0494-1.632 1.6088-2.8602 0.77785-3.4913 0.44194-1.0994-0.80557-1.6995-1.8608-1.8562-3.1378z" fill="#ffa8ad" fill-rule="evenodd" stroke="#f00" stroke-width=".29055"/> <path d="m76.721 49.333c-1.6182-1.1014-1.2053-2.372-1.5468-3.5797-0.05494-1.5481 1.3325-2.5194 2.3865-3.6239 1.4929-0.55683 2.2609-2.1485 3.6681-2.2097 1.2346-0.18992 1.9563 0.81719 2.8726 1.37 1.6598 0.56557 2.8106 1.7421 3.8891 3.0052 0.29188 1.6794-0.35534 3.3588-2.6516 5.0381-0.18487 0.82995-0.33002 1.6457-2.1213 3.0494-1.632 1.6088-2.8602 0.77785-3.4913 0.44194-1.0994-0.80557-1.6995-1.8608-1.8562-3.1378z" fill="url(#q)" fill-rule="evenodd" opacity=".315" stroke="#f00" stroke-width=".29055"/> <path d="m86.134 22.374c-0.14913-1.4833 0.99823-2.0159 2.6075-2.2097l6.4082-0.53033 4.6404-2.961 2.8726-1.149c0.63504-0.0052 1.9667-0.27849 1.1932 1.7678l-2.9168 7.3362-4.773 5.5685c-1.3103 0.91183-3.0049 1.0202-5.8336 0.53033l-0.26517-3.0936c0.90094-2.1826-0.86108-1.7022-1.9445-1.9003z" fill="url(#r)" fill-rule="evenodd" opacity=".307" stroke="#f00" stroke-width=".29055"/> <path d="m86.063 56.048c0.39231 2.5074-1.1843 5.3854-2.3092 7.0822-0.88718 1.3383-2.913 3.5559-4.9594 5.4837-2.3918 2.2531-4.4236 3.6242-6.3357 6.0624-1.6746 2.2056-2.3782 3.6143-1.8393 7.0236 0.59406 0.44132 1.009 1.0008 1.2893 1.5719 0.37606 0.76626 0.85374 2.3685 0.59916 3.3994-0.34012 0.09498-1.244 0.18047-1.5692 0.10642-0.74932-2.0688-1.0078-2.9758-1.6236-2.7083-0.4868 0.16557-0.11711 1.8743 0.37031 3.0692-0.5166 0.29016-1.3102 0.50678-1.8041 0.85273-0.83845 0.0026-1.1004-0.28534-1.6763-0.94704l-1.1707 0.3899c-0.39482-0.71416-0.56259-2.1176-2.0405-2.9437 0.46066-2.6496 0.87483-4.5061 1.4876-6.5395-0.11191-0.82757-0.32597-2.5379-0.23782-3.0907 0.16258-1.0195 0.63814-2.1172 1.4458-4.7958l-0.96079-0.22871c-0.82423 2.7336-1.591 3.8195-1.7852 5.0278-0.16533 1.0287 0.15168 2.4689 0.20462 2.9998-0.89932 3.0423-1.7891 4.7384-2.2881 7.5551 0.89123 0.29044 2.1398 0.06487 2.1427 1.2015 0.0037 1.431 0.81022 1.4984 1.2151 2.5834 0.76168 0.2058 1.3743-0.47027 1.8159-0.79787 0.84367 0.43541 1.5582 0.80657 2.2861 0.62014 0.84575-0.21662 1.6847-0.88081 2.2007-1.1734 0.88933-0.01904 1.6955 0.28995 2.4675-0.23897 0.94172-0.76353 1.0454-0.95753 0.96094-2.0153 0.25647-1.6242-0.52323-3.036-1.6191-4.1953 0.01364-0.48817 0.12802-3.3776 1.7266-5.416 1.6826-2.1456 3.7152-3.8373 6.3142-6.3022 1.5976-1.5151 3.782-3.533 5.2287-5.7154 1.7112-2.5813 1.7529-7.1695 1.5153-8.6878z" color="#000000" color-rendering="auto" fill="#724834" fill-rule="evenodd" image-rendering="auto" shape-rendering="auto" solid-color="#000000" style="block-progression:tb;isolation:auto;mix-blend-mode:normal;text-decoration-color:#000000;text-decoration-line:none;text-decoration-style:solid;text-indent:0;text-transform:none;white-space:normal"/> <path d="m62.24 84.241c-0.72814-0.09761-1.8803 1.1351-2.1792 2.0503-0.29892 0.91514-0.11566 2.6519 0.58008 3.4434 0.44361 0.50465 1.0115 1.0368 1.5312 0.9707 0.51978-0.06606 1.2866-0.52025 1.6471-1.2356-0.27506 1.6711 0.25432 2.5484 0.26307 3.3645 0.0069 0.64325 0.72187 1.341 1.4766 1.9531s1.5857 0.82669 2.3457 1.0723c0.76 0.24558 1.8863 0.23252 2.6836 0.12109 0.92773-0.12965 0.78463-0.75266 1.1523-1.3457 0.52011 0.34596 1.4928 0.80424 1.9531 0.61328 0.7874-0.32666 1.3349-1.3743 1.4902-1.7715 0.52123-1.3323-0.08599-3.0183-0.22266-3.3965l-1.2168-3.3672-1.929 0.03542c-0.48312 0.0089-1.0806-0.10714-2.1277 0.26145s-1.2479 0.98077-2.0918 0.8418c-0.80071-0.13187-0.70984-0.85668-1.4434-0.99805-0.64565-0.12443-1.0203-0.06652-1.3213 0.12983-0.38902-1.7911-1.3938-2.5821-2.5913-2.7426zm0.60038 1.852c0.33231 0.43998 0.01813 1.3507-0.21117 1.9522-0.30885 0.81003-0.36076 1.1471-0.625 1.2305-0.46157 0.14563-0.83581-0.3905-0.98047-1.2988-0.11138-0.6994-0.08019-1.6408 0.47736-1.9913 0.55755-0.35052 1.2248-0.04402 1.3393 0.10749zm9.2829 1.9424 1.189 1.7834c0.75084 1.1262 0.75905 2.4476 0.08054 3.2634-0.36695 0.44121-0.63309 0.28953-1.0762-0.15039 0.21919-0.47677 0.23228-1.2063-0.12381-1.8311-0.38367-0.6731-1.0223-1.923-1.0344-2.8916zm-2.1523 0.4082c0.1577 0.61784-0.13143 1.7029 0.14844 2.2812 1.0909 2.2546 1.1732 3.3498-0.21289 3.2637-1.273 0.15673-2.289-0.37828-3.2324-1.0176-0.537-0.36389-0.99902-0.80343-1.1094-1.4922-0.16824-1.0501-0.05666-2.3244 0.24414-2.7949 0.26505 0.05701 1.5375 0.55117 2.2266 0.62109 0.81444 0.08265 1.0881-0.27715 1.9355-0.86133z" color="#000000" color-rendering="auto" fill="#857a61" fill-rule="evenodd" image-rendering="auto" shape-rendering="auto" solid-color="#000000" style="block-progression:tb;isolation:auto;mix-blend-mode:normal;text-decoration-color:#000000;text-decoration-line:none;text-decoration-style:solid;text-indent:0;text-transform:none;white-space:normal"/> <path d="m26.434 61.004c-1.514 0.284-2.3764 1.9119-3.5434 2.9227l1.0063 0.85853c0.63376-0.54897 1.6212-1.5284 2.7154-2.0508 1.2693-0.60598 2.6671-0.70396 3.5822-0.49323l0.33567-0.73664c-1.2993-0.29924-2.5822-0.78454-4.0962-0.50054z" color="#000000" color-rendering="auto" fill="#724834" fill-rule="evenodd" image-rendering="auto" shape-rendering="auto" solid-color="#000000" style="block-progression:tb;isolation:auto;mix-blend-mode:normal;text-decoration-color:#000000;text-decoration-line:none;text-decoration-style:solid;text-indent:0;text-transform:none;white-space:normal"/> <path d="m12.042 63.652c-2.7409 1.2673-3.7572 3.0584-4.5681 4.1029-1.1478 1.3982-0.78919 2.8148-0.4184 4.3297 0.64929 0.13318 1.0771 0.54295 1.5197 0.88174 0.26846 0.34413-0.1192 1.2897 0.59015 2.6113s2.1552 1.9323 3.3503 1.9716c1.195 0.03928 2.1-0.22844 2.7207-0.18945l0.02367-1.3275c-1.2185 0.23284-2.0643 0.12028-2.7085-0.07767-0.61417-0.18873-1.1706-0.35294-1.9177-1.3941-0.58693-0.77049-1.321-2.1049-1.8533-2.7753-0.53226-0.67031 0.12693-2.374 0.48316-3.0476 0.68268-1.291 1.3721-1.65 2.9797-2.9683z" color="#000000" color-rendering="auto" fill="#724834" fill-rule="evenodd" image-rendering="auto" shape-rendering="auto" solid-color="#000000" style="block-progression:tb;isolation:auto;mix-blend-mode:normal;text-decoration-color:#000000;text-decoration-line:none;text-decoration-style:solid;text-indent:0;text-transform:none;white-space:normal"/> <path d="m67.388 49.807c-0.4296 0.65172 0.87464 2.7063 1.936 4.015s2.7032 3.0322 4.9023 3.4395c2.0665 0.38265 4.4758 0.06402 6.1836-0.39062 1.2439-0.33115 2.7277-1.0172 3.8164-2.0781 1.0887-1.061 1.9-2.3804 2.183-3.7899-0.65458 0.34043-1.5098 1.6377-2.9212 3.2118-0.90783 1.0125-2.9008 1.5407-3.6855 1.707-1.8323 0.38833-3.7004 0.3649-5.6289 0.0078-1.9044-0.35264-3.1969-1.6201-4.0625-2.6875-0.86559-1.0674-2.4185-3.5867-2.7231-3.435z" color="#000000" color-rendering="auto" fill="#d0997e" fill-rule="evenodd" image-rendering="auto" shape-rendering="auto" solid-color="#000000" style="block-progression:tb;isolation:auto;mix-blend-mode:normal;text-decoration-color:#000000;text-decoration-line:none;text-decoration-style:solid;text-indent:0;text-transform:none;white-space:normal"/> <path d="m81.436 38.984c-0.67243-0.02611-1.8742 0.6952-2.5234 1.5488-0.53005 0.69688-1.6173 0.93952-2.6719 1.7695-1.048 0.82487-1.8548 2.1084-1.8691 3.4395-0.01137 1.0575 0.30463 2.0296 0.87305 2.8203-1.0683-0.26969-2.0345-0.84496-2.209-1.9414-0.97251-0.05073-1.9575-0.79978-1.8877-1.1872 0.07173-0.39833 1.1284-0.59044 1.2725-0.95341 0.44132-1.112-0.96988-1.9789-1.959-1.7539-0.9891 0.22495-1.4296 1.9671-1.0078 2.9316 0.3784 0.8652 1.178 1.7966 2.457 2.3457 0.77258 1.9228 3.1748 2.5669 5.5039 2.127 0.01835 0.56978 0.29983 1.0691 0.69531 1.6816 0.61186 0.94766 1.559 2.1864 3.0605 2.1855 1.6816-1e-3 3.0376-1.6587 3.7012-2.6055 0.44614-0.6366 0.60937-1.3094 0.69531-1.7773 0.52524-0.21302 0.99964-0.50265 1.373-0.88086 0.69838-0.70735 1.418-1.7763 1.5625-3.2148 0.14451-1.4386-0.3684-2.3817-1.707-3.4258s-1.7097-1.0574-2.7129-1.6855c-0.59889-0.375-1.2941-1.3713-2.6465-1.4238zm0.14844 1.5645c1.2596-0.03012 1.6321 0.84249 1.9375 1.0273 1.6332 0.9886 3.5164 1.5403 3.6406 3.5117 0.08065 1.2797-0.43154 2.3474-0.83789 2.7246-0.80102 0.74354-2.0469 1.1349-3.0801 1.0371-0.77063-0.07294-1.1821-0.5774-1.7871-1.0449-0.85843 0.63145-1.4362 1.3406-2.2207 1.2402-0.4869-0.06227-2.0817-0.62296-2.5195-1.209-0.755-1.0105-0.67377-2.1782-0.38867-2.9824 0.58696-1.6557 1.5625-2.0448 2.8398-2.9316 0.81464-0.56562 1.0279-1.3399 2.416-1.373zm0.05273 8.9453c0.48728 0.24528 0.99375 0.55128 1.3926 0.56055 0.63878 0.01485 1.2897-0.07316 1.9043-0.24024-0.35116 0.3586-0.67151 0.69555-1.0449 1.0605-0.59868 0.58519-2.0217 1.224-3.0332 1.0371-0.46748-0.08638-1.356-0.03987-1.9629-1.4199 1.1731 0.11861 2.0622-0.5398 2.7441-0.99805z" color="#000000" color-rendering="auto" fill="url(#i)" fill-rule="evenodd" image-rendering="auto" shape-rendering="auto" solid-color="#000000" style="block-progression:tb;isolation:auto;mix-blend-mode:normal;text-decoration-color:#000000;text-decoration-line:none;text-decoration-style:solid;text-indent:0;text-transform:none;white-space:normal"/> <path d="m72.309 27.947c-1.183-0.12309-2.4549 0.25653-3.2367 1.1885-1.0139 1.2085-1.3223 2.8443-1.3074 4.383 0.01797 1.8603 2.0826 3.8332 2.7164 3.1711-0.64782-0.83895-1.2785-1.5873-1.4343-2.7393-0.16372-1.2106 0.09359-2.5705 0.75274-3.6308 0.37767-0.60748 1.6017-1.0547 2.2833-1.0247 1.0569 0.04653 2.1609 0.85374 2.4981 1.836 0.47068 1.3713 0.2346 2.4329-0.08082 3.5545 0.87783-0.24838 1.2925-1.8702 1.3206-2.9456 0.03072-1.1731-0.24461-2.0776-1.1145-2.7947-0.6771-0.55818-1.5229-0.90689-2.3974-0.99788z" color="#000000" color-rendering="auto" fill="#d0997e" fill-rule="evenodd" image-rendering="auto" shape-rendering="auto" solid-color="#000000" style="block-progression:tb;isolation:auto;mix-blend-mode:normal;text-decoration-color:#000000;text-decoration-line:none;text-decoration-style:solid;text-indent:0;text-transform:none;white-space:normal"/> <path d="m85.673 28.739c-1.0762 0.04921-1.583 0.30462-2.077 1.1943-0.38489 0.69311-0.83476 2.8184 0.03916 3.0878 0.21101-1.2774 0.46087-2.1113 1.7635-2.6496 0.43246-0.17868 1.5689 0.14049 1.9536 0.67752 0.53249 0.74327 0.72452 1.5801 0.61675 2.4998-0.17861 1.5244-1.3884 2.1631-1.9927 2.7179 1.2579 0.03269 2.0787-0.53718 2.5361-1.2326 0.37576-0.57143 0.69232-2.1988 0.61464-2.8726-0.14158-1.228-0.53004-2.0056-1.2864-2.6392-0.55772-0.46719-1.43-0.81708-2.1676-0.78335z" color="#000000" color-rendering="auto" fill="#d0997e" fill-rule="evenodd" image-rendering="auto" shape-rendering="auto" solid-color="#000000" style="block-progression:tb;isolation:auto;mix-blend-mode:normal;text-decoration-color:#000000;text-decoration-line:none;text-decoration-style:solid;text-indent:0;text-transform:none;white-space:normal"/> <path d="m6.8569 71.045s-1.1777 1.0543-1.715 1.8529c-0.26866 0.39927-0.5724 0.70926-0.72974 1.2092-0.15734 0.49995-0.58011 1.1581-0.18754 1.7285 0.41937 0.6094 1.3941 0.87832 1.9878 0.90162 0.59368 0.0233 1.2478-0.19136 1.7661-0.34815 1.0366-0.31359 1.9638-1.3988 1.9638-1.3988 0.40919-0.65002 0.10364-1.8447-0.63188-2.6547-0.84343-0.92877-1.4912-1.5831-2.4536-1.2906zm0.10988 1.2869c0.66339-0.08252 0.93418 0.24041 1.1492 0.58571 0.1999 0.32107 0.28181 0.72881 0.125 0.93432-0.17209 0.22552-0.60886 0.52497-1.1296 0.88603-0.35067 0.24312-1.5335 0.41709-1.7658 0.15451-0.23237-0.26257 0.30032-0.99836 0.51383-1.3157 0.33735-0.50135 0.95453-1.079 1.1075-1.2449z" color="#000000" color-rendering="auto" fill="#887d61" fill-rule="evenodd" image-rendering="auto" shape-rendering="auto" solid-color="#000000" style="block-progression:tb;isolation:auto;mix-blend-mode:normal;text-decoration-color:#000000;text-decoration-line:none;text-decoration-style:solid;text-indent:0;text-transform:none;white-space:normal"/> <path d="m10.694 74.745c-0.97945 1.8046-1.5079 3.6065-1.6679 5.177-0.036743 0.8285 1.5225 2.0533 2.6635 2.6427 1.141 0.58941 2.6461 0.64707 3.5933 0.39813l0.28711-2.0132c-0.85505-0.14091-1.9912-0.15868-2.8027-0.57786-0.80271-0.41465-1.5888-0.67942-1.3565-1.4678l0.42482-1.4412c1.4013 0.47222 2.6729 0.57424 3.7925 0.30909l-0.31982-1.813c-0.79642 0.18862-1.56 0.16068-2.2997 0.01551-1.0202-0.20022-1.4189-0.68082-2.3145-1.2294z" color="#000000" color-rendering="auto" fill="#8c7f60" fill-rule="evenodd" image-rendering="auto" shape-rendering="auto" solid-color="#000000" style="block-progression:tb;isolation:auto;mix-blend-mode:normal;text-decoration-color:#000000;text-decoration-line:none;text-decoration-style:solid;text-indent:0;text-transform:none;white-space:normal"/> <path d="m73.002 34.34c-0.42829 0.61258-1.3378 0.65797-2.0028 0.38843s-1.0367-0.98039-0.89336-1.7085c0.14335-0.72808 0.89355-1.0781 1.62-1.1205 0.72642-0.04244 1.3637 0.43316 1.5316 1.1431-0.75691-0.14145-1.5035-0.25643-1.9574 0.37716 0.74841 0.04776 1.3578 0.29436 1.702 0.92031z" fill="#5b2e2e"/> <path d="m87.407 34.114c-0.41135 0.62409-1.3192 0.69436-1.9914 0.44314-0.67213-0.25122-1.0632-0.95163-0.93982-1.6834s0.86368-1.1021 1.5887-1.1644c0.72498-0.06232 1.375 0.39564 1.5623 1.1007-0.7605-0.12066-1.5099-0.21516-1.9463 0.43064 0.74944 0.02724 1.3654 0.25706 1.7265 0.87335z" fill="#5b2e2e"/> <path d="m79.169 47.167c-1.0575 0.0056-1.729-0.35752-1.741-1.3525-0.01198-0.99498 0.83229-1.8123 1.8896-1.8292 1.0573-0.01692 1.9427 0.77268 1.9549 1.7882 0.01231 1.0155-1.0461 1.3879-2.1035 1.3935z" fill="url(#m)"/> <path d="m84.318 47.123c-1.0575 0.0056-1.729-0.35752-1.741-1.3525-0.01198-0.99498 0.83229-1.8123 1.8896-1.8292 1.0573-0.01692 1.9427 0.77268 1.9549 1.7882 0.01231 1.0155-1.0461 1.3879-2.1035 1.3935z" fill="url(#l)"/> <path d="m33.273 10.08c-1.532-0.011141-3.0867 0.089822-4.4102 0.29297-7.0872 1.0879-14.723 3.8646-19.656 9.4102-4.3189 4.8552-5.9905 11.755-6.168 18.018-0.1097 3.8702 1.3557 8.954 2.8066 13.199 1.4509 4.2453 1.8919 5.0932 2.9297 7.6035 0.76654 1.8542 3.2129 5.582 3.2129 5.582-1.0001 3.3294-1.3015 4.2307-1.3516 6.2617-0.03843 1.5594 1.1605 2.8447 2.5645 4.1875 0.98637 0.94338 1.5903 2.1632 1.5508 3.166-0.14858 3.7657-0.5277 5.7841 0.27539 7.1855 0.81478-1.0948 2.3991-1.4854 3.377-0.69531 0.30053 0.24281 0.97073 0.9661 1.1067 1.9442 1.1431-0.58772 1.5013-0.51584 2.2717-0.9123 1.4505-0.50604 2.527-0.39071 3.9595-0.6042 0.86498-0.06243 1.3045-0.81108 1.5032-0.75505 0.41218 0.11622 0.64849 1.0518 0.98361 0.63806s0.68135-0.48059 0.63626-0.86152c-0.09018-0.76185-0.41399-1.1872-0.62109-1.5078 0 0-1.1767-1.345-2.123-2.6758-0.94632-1.3308-1.7229-3.0371-1.6855-3.7031 0.29004-5.1751-0.45207-9.9563-0.57031-14.025-0.01832-0.63046 0.10897-1.8279 0.28906-2.6855 0.87263 0.64814 1.8814 1.9674 2.9531 2.748 1.728 1.2586 3.5802 1.11 5.3262 1.5371 1.9643 0.48051 3.8417 1.2721 5.5781 1.5625 2.9547 0.49407 5.4248 0.16796 6.6719 0.60938 1.98 0.70084 1.35 2.6177 1.5938 3.7832 0.48753 2.3311 0.78819 5.271 2.209 7.6074 1.3408 2.205 3.0256 5.1811 3.2168 7.543 0.13624 1.6827-0.78906 5.334-0.78906 5.334l1.2044 0.74797c0.58714 0.02897 1.3449 0.11094 1.6884 0.5674s0.12243 1.8315-0.09 2.6085l0.87496 0.2878c0.52555-0.9977 1.4733-0.9518 2.2593-0.73365 0.48345 0.13418 0.99556 0.64391 1.6932 1.2486l0.44259-0.1145c0.16201-0.63458 0.44296-0.5277 1.1479-0.62186 0.94837-0.12668 1.5653 0.31885 1.7509 0.73801l1.169-1.0212s-1.3882-4.9272-1.5469-7.3984c-0.12509-1.9479 0.44692-3.8557 0.47752-5.8074 0.03492-2.2274-0.04045-5.7015 0.06319-6.668 0.11576-1.0794 0.34626-2.4718 1.0466-2.856 0.58867-0.32287 2.6595-0.69066 2.9224-0.70581 1.9875-0.11452 3.4451 1.4979 5.2227 1.2402 1.7504-0.25374 3.4271-0.98743 4.832-2.0312 2.5698-1.9093 3.9853-4.6651 5.6387-6.7578 1.926-2.4377 4.0266-5.4051 5.5234-7.3281 1.7036-2.1887 4.1598-3.5088 5.0625-5.9238 1.0215-2.7329 1.4155-6.8245-0.97461-10.875-0.03763-2.0444-0.08374-4.2385 0.07031-6.4746 2.3882 0.2509 3.432 0.53135 5.3145-0.86523 0.87518-0.64931 1.4458-2.1374 2.2168-3.1055 3.0756-3.8617 3.9551-5.4029 5.3926-9.4746 0.50754-1.4376 0.75862-2.903-0.15625-4.084-0.45744-0.59049-1.1738-0.94467-1.9199-1.0645-0.74614-0.11978-3.3879 0.30928-4.332 0.50781-1.6285 0.34245-2.9814 1.1858-5.2734 1.6309-1.7669 0.34307-3.8985-0.14077-6.0977 0.63086-1.4463 0.50745-2.7045 1.3024-3.8789 2.0371-0.41994-0.1958-1.1306-0.54106-2.5644-1.0898-1.7932-0.68632-3.8055-1.0116-5.6309-1.0957-2.9279-0.13493-5.4255 2.4088-8.0977 2.3945-4.5793-0.02447-9.1967-3.0004-14.477-4.4492-5.4271-1.4892-11.21-3.4874-17.1-3.832-0.49599-0.02902-1.0049-0.04511-1.5156-0.048832zm0.63476 2.9688c0.478-0.0094 0.94339-0.0013 1.3867 0.02539 5.4695 0.32886 10.537 1.3637 16.131 2.8887 4.5769 1.2477 9.2983 4.1699 14.885 4.3066 2.9089 0.07122 5.3179-2.1716 7.9785-2.1387 1.1284 0.01396 3.427 0.09267 5.0312 0.93164 1.3628 0.71271 2.2318 1.0121 3.4141 1.3105 1.8899-0.61324 2.4194-1.5175 4.2793-2.25 1.5754-0.62047 3.7407-0.46284 5.9238-0.88672 2.4804-0.48161 4.1217-1.3179 5.5078-1.6094 0.47869-0.10066 1.9285-0.41939 3.0273-0.46094-0.44718 0.26766-0.94023 0.60918-1.5879 0.82812-1.73 0.58484-3.1844 2.2732-4.9629 2.8945-0.85815 0.2998-2.7016 0.15642-4.2031 0.375s-2.6172 0.32184-3.2969 0.46094c-0.54277 0.11108-1.3186 0.53452-1.6387 1.2832-0.32008 0.74869-0.08445 1.4648 0.18359 2.0469 0.26804 0.58209 0.60622 1.1314 0.91406 1.6094 0.38173 0.5927 0.52687 1.1666 0.63477 1.8379 0.59619-0.01587 2.5361-0.98786 2.209 0.69727-0.27961 1.4405 0.0062 2.1964 0.08594 3.5723-0.81023 1.3085-0.31437 7.6686-0.2207 8.4805 0.63557 2.299 1.526 5.9698 0.54297 8.5996-0.77508 2.0736-2.793 4.334-4.3477 6.4785-1.8032 2.4873-4.8034 4.117-7.4336 4.7695-2.4834 0.61611-5.6808 0.36229-7.5566-0.55273-4.7889-2.336-8.433-6.0624-9.9277-9.7012-1.5701-3.8222-1.4741-7.3569-1.6934-7.5762-0.51126 0.29215-0.93283 3.9361 0.74805 7.8477 1.6957 3.9462 5.0867 8.1477 10.518 10.797 2.3818 1.1619 5.3146 1.22 8.1074 0.54102 0.77308-0.18794 1.5348-0.43951 2.2754-0.73828-0.36654 0.46102-0.71173 0.89742-1.0566 1.334-1.8503 2.3419-3.2051 4.8434-5.1719 6.3047-1.0796 0.80212-2.4048 1.4602-3.7266 1.5723-1.9848 0.16823-3.9672-0.82222-5.7461-0.5625-0.87088 0.12715-1.8324 0.57187-2.8359 0.98828-1.0036 0.41642-3.0534 0.47544-4.0312 0.12109-1.0142-0.36753-3.7477-2.5073-4.0449-1.9551-0.26904 0.4396 2.3036 2.9507 3.6094 3.4238 0.7911 0.28667 2.3989 0.51838 3.377 0.47216-0.21533 0.56913-0.31745 1.383-0.39208 2.0139-0.27677 2.3401-0.11698 4.5061-0.02761 6.8603 0 0-0.94517 4.0439-0.86746 6.0442 0.07341 1.8897 1.2402 6.8184 1.2402 6.8184-0.69183-0.70555-1.6363-0.83215-2.6348 0.37109-0.60179-1.3136-2.138-1.2832-3.3376-0.86669-0.03707-0.46422-0.11972-1.4899-0.77765-2.0825-0.47969-0.43205-1.4327-0.84343-2.207-0.88672 0.17838-1.1001 1.2003-3.5345 1.0566-5.3086-0.24751-3.0571-1.1586-6.2374-2.6426-8.6777-1.1562-1.9013-2.161-4.5541-2.4062-6.7695-0.2223-2.008-0.47648-2.7812-1.6211-4.666-1.1446-1.8848-1.4227-5.2781-1.4961-8.2012-0.08085-3.2193 1.9989-5.7775 3.2305-8.7812s-0.9438-11.093-1.4453-10.953c-0.55781 0.13988 1.4056 7.8475 0.3457 10.422-1.1561 2.8079-3.6673 5.3194-3.5664 8.9727 0.07644 2.7685 0.20353 5.6853 1.2754 8.2031-1.8238-0.23069-3.7658-0.06424-5.6797-0.62891-3.7396-1.1033-8.1574-4.6347-13.498-10.014 0.13347-0.34953 0.34728-1.6645 0.25976-2.0859-0.33087-1.5932-1.0451-2.7573-1.6855-5.3613-0.61776-2.5119-0.48571-5.5126-0.91211-5.418-0.42406 0.09413-0.69918 2.8018-0.31641 5.2695 0.40114 2.5862 1.4697 4.9665 1.3711 6.4023-0.05481 0.79787-0.51708 1.7211-1.002 2.623-1.1149 2.0739-1.4273 4.471-1.7188 6.8438-0.5818 4.7358 1.217 8.8192 0.95117 13.562-0.11221 2.0022 0.60045 3.677 1.6621 5.1699 0.58657 0.82486 2.4746 2.2529 2.886 2.7273 0.59684 1.1986 0.31483 0.8348-1.2816 0.62699-1.2239 1.3868-2.484 0.86369-4.1058 1.0777-0.50256 0.15915-1.2969 0.4481-1.7847 0.75023-0.11595-0.63282-0.87657-1.0587-1.2928-1.4663-0.43692-0.4279-0.9716-1.0887-2.5324-0.72633-0.17756-0.95779 0.70808-3.3858 0.66996-5.4114s-1.6265-3.067-2.5449-4.0469c-0.91845-0.97986-2.7572-2.8474-2.1641-5.0742l1.2754-4.7852-2.4355-6.3594c-8.61e-4 -0.0023-1.071-3.298-2.4844-7.4336-1.4138-4.1368-2.4796-9.3003-2.3906-12.439 0.1662-5.8636 1.768-11.668 5.5117-15.877 4.3511-4.8915 11.063-7.3627 17.785-8.3809 1.4549-0.22037 3.0094-0.39568 4.4434-0.42383zm68.371 3.3262c0.28247-0.0137 0.69471 0.0276 0.72265 0.34961 0.0856 0.98654-0.66036 2.0694-1.0254 3.1035-1.4731 4.1732-2.0824 4.7112-3.9531 6.8262-0.92684 1.0479-1.9988 2.9906-2.4707 3.2188-1.6058 0.77636-3.0351 0.55045-4.4902 0.42383-0.35633-0.9791-0.5924-1.7699-0.29688-2.6406 0.39257-1.1567 0.05142-1.8382-0.49219-2.2422-0.38325-0.28478-1.3436-0.28476-1.8223-0.37695-0.08997-0.76246-0.3051-0.92318-0.54492-1.2754-0.46097-0.677-1.051-1.4774-0.63864-2.1611 0.59435-0.98547 2.6356-0.83576 3.707-0.99123 1.5404-0.22352 3.3996 0.0137 4.5625-0.39258 2.2637-0.79085 3.614-2.7091 4.6016-3.043 0.7247-0.24498 1.5132-0.76839 2.1406-0.79883zm-77 37.992c2.9886 2.998 8.7241 7.6877 11.398 8.7012-1.074 0.45114-2.3728-0.96629-3.9727-1.4082-1.9296-0.53297-4.264-1.006-5.002-1.6855-1.1778-1.0847-2.8576-1.911-3.3086-2.6387 0.06869-1.0546 0.71259-2.6891 0.88477-2.9688z" color="#000000" color-rendering="auto" fill="#d0997e" fill-rule="evenodd" image-rendering="auto" shape-rendering="auto" solid-color="#000000" style="block-progression:tb;isolation:auto;mix-blend-mode:normal;text-decoration-color:#000000;text-decoration-line:none;text-decoration-style:solid;text-indent:0;text-transform:none;white-space:normal"/> <path d="m65.875 26.924-2 1.75h-5.75l-4-5.75-0.125-6.875-0.875-2.625c0.12697-2.3497 1.7168-1.4081 3.125-0.875 4.6105 0.5988 8.5363 2.9092 12.5 5.125l-0.125 5.125z" fill="url(#o)" fill-rule="evenodd" stroke="#d40000" stroke-width=".29055"/> <path d="m65.748 27.197-2 1.75h-5.75l-4-5.75-0.125-6.875-0.875-2.625c0.12697-2.3497 1.7168-1.4081 3.125-0.875 4.6105 0.5988 8.5363 2.9092 12.5 5.125l-0.125 5.125z" fill="url(#s)" fill-rule="evenodd" opacity=".296" stroke="#d40000" stroke-width=".29055"/> <path d="m53.398 11.344c-0.67044 0.33756-0.86362 1.2211-0.83594 2.0332 0.02768 0.81208 0.27268 1.7626 0.71094 3.3359s0.15133 3.0442 0.0332 4.2598c-0.11813 1.2155-0.14505 1.6713 0.09961 2.3633 0.22151 0.62648 1.0792 0.98538 1.6875 1.9277 1.1954 1.8518 1.6322 3.4376 3.0996 4.1465 1.4675 0.70887 3.0942 1.2933 5.1242 0.31058 1.4361-0.27019 1.5441 0.49239 2.0399 0.84907 0.88793 1.1898 1.8258 0.59527 0.85738-1.2046-0.20205-0.37554-0.62333-0.63932-1.0234-0.95898 2.3904-1.9672 3.5157-3.6917 4.0693-6.3935 0.59293 0.3255 0.91333 0.94137 0.90142 1.8095 0.16703 1.2311 1.0634 0.90555 1.4372-0.42256-0.04498-0.9927 0.0859-1.733-0.07004-2.8685s-0.79371-2.49-2.6504-4.0371l-0.0039-2e-3 -2e-3 -2e-3c-1.3219-1.0845-3.827-2.2408-6.291-3.2012-1.7134-0.66778-2.2329-0.86139-4.5234-1.5605-1.5882-0.49273-3.2679-1.0857-4.6602-0.38477zm0.93482 1.7537c2.6299 0.58395 4.9554 1.8945 7.3176 2.7363 2.4198 0.86239 4.3989 2.5145 5.4506 4.6642 1.3687 2.7976-0.20694 4.5643-3.4237 6.8535-1.517 1.0796-3.5604 1.2225-4.9414 0.60742-0.68214-0.30382-1.3342-1.5966-2.3457-3.0801s-1.1977-1.8253-1.3145-2.1348c-0.41447-1.0986-0.04127-2.2101 0.10742-3.2539 0.14437-1.0135 0.1252-2.0717-0.16992-3.1074-0.35502-1.246-1.6685-2.4153-0.68042-3.2853z" color="#000000" color-rendering="auto" fill="#dca183" fill-rule="evenodd" image-rendering="auto" shape-rendering="auto" solid-color="#000000" style="block-progression:tb;isolation:auto;mix-blend-mode:normal;text-decoration-color:#000000;text-decoration-line:none;text-decoration-style:solid;text-indent:0;text-transform:none;white-space:normal"/> <path d="m15.803 83.852c1.208-0.31498 2.4159-0.0377 3.6239 1.0607-0.65889 1.3617-1.0169 3.2048-2.2097 3.7123-1.547-0.64694-1.1613-1.4549-1.4142-2.2097z" fill="#c8bea9" fill-rule="evenodd" stroke="#f00" stroke-width=".29055"/> <path d="m15.822 83.937c1.208-0.31498 2.4159-0.03772 3.6239 1.0607-0.65889 1.3617-1.0169 3.2048-2.2097 3.7123-1.547-0.64694-1.1613-1.4549-1.4142-2.2097z" fill="url(#v)" fill-rule="evenodd" opacity=".312" stroke="#f00" stroke-width=".29055"/> <path d="m20.537 85.322c1.4771-0.82276 2.9636-0.28839 4.552-0.22097 0.49074-0.84014 1.4411-1.4107 2.8726-0.83969 1.4927 0.67512 2.3304 2.8472 3.0052 5.3917l-2.2981 1.2374-2.0329-2.2097c0.0051 0.77243 0.43 2.0696 0 2.2981l-4.8614 0.53033c-1.0736-2.2093-1.2083-4.21-1.2374-6.1872z" fill="#c8bea9" fill-rule="evenodd" stroke="#f00" stroke-width=".29055"/> <path d="m20.683 85.351c1.4771-0.82276 2.9636-0.28839 4.552-0.22097 0.49074-0.84014 1.4411-1.4107 2.8726-0.83969 1.4927 0.67512 2.3304 2.8472 3.0052 5.3917l-2.2981 1.2374-2.0329-2.2097c0.0051 0.77243 0.43 2.0696 0 2.2981l-4.8614 0.53033c-1.0736-2.2093-1.2083-4.21-1.2374-6.1872z" fill="url(#w)" fill-rule="evenodd" opacity=".291" stroke="#f00" stroke-width=".29055"/> <path d="m26.693 82.477c-0.42691-0.02739-0.84037 0.05768-1.2012 0.25195-0.413 0.22237-1.0391 1.2786-1.0254 1.6973-0.74842-0.32614-2.2842-0.5454-3.0469-0.21875-0.50255 0.21523-0.91993 0.48618-1.2344 0.77344-0.54295-1.3132-1.7837-1.9101-2.9043-2.0488-0.60394-0.07479-1.2249-0.05064-1.7559 0.53125-0.41216 0.45171-0.62731 1.7075-0.45508 2.9199 0.08611 0.60621 0.23104 1.2471 0.55078 1.834s0.90129 1.1568 1.6973 1.2793c0.65767 0.10122 1.0086-0.45916 1.4336-0.79492 0.42503-0.33576 0.85459-2.2093 1.0547-1.9187 0.20007 0.29059 0.34273 2.2959 0.52346 3.2508 0.13065 0.69028 0.63526 2.0751 1.2207 2.291 0.58544 0.21594 1.1937 0.25986 1.7988 0.24023 1.2103-0.03926 2.4441-0.41099 3.4648-0.48633 1.1577-0.08545 0.59801-1.4512 0.38867-2.377 0.45317 0.77618 0.88864 2.2986 2.457 1.9629 1.241 0.06344 1.8577-0.96002 2.0137-1.8867-0.14952-3.2503-2.2049-5.474-2.8965-6.2246-0.62099-0.674-1.3725-1.0305-2.084-1.0762zm-8.1914 2.6172c-0.06051 0.76803-0.28023 1.3399-0.54102 1.7812-0.16568 0.28039-0.36486 1.0143-0.89453 0.81055-0.52967-0.20373-0.57201-1.0248-0.64062-1.5078-0.10402-0.73226-0.01746-1.4244 0.5213-1.608 0.53876-0.18356 1.0368 0.14685 1.5549 0.524zm8.3301-0.43164c0.21294-0.06531 1.0309 0.19076 1.4385 0.8313 0.48609 0.76391 0.62417 0.82808 0.87006 1.5261 0.31866 0.90461 0.55621 2.0611 0.44336 2.5957-0.10478 0.03206-1.4339 0.02864-1.6465-0.08398 0 0-0.46256-1.6818-0.79688-2.4844-0.26283-0.63094-0.87151-1.0647-0.76758-1.5098 0.10903-0.46693 0.24604-0.80969 0.45898-0.875zm-2.3242 0.93359c1.144 0.07582 1.1553 1.4348 1.3945 2.1133 0.24473 0.67782 0.60696 1.2664 0.6543 2.1562-0.86476 0.14913-2.0754 0.1273-2.7773 0.22266-0.94045 0.12776-1.8537-0.11706-2.2031-1.207-0.18935-0.59056-0.58801-1.2637-0.20898-2.3594 0.14856-0.21252 0.54015-0.51779 1.0215-0.68164 0.55651-0.18944 0.94153-0.19337 1.4062-0.08984 0.30225-0.08844 0.52344-0.15103 0.71289-0.1543z" color="#000000" color-rendering="auto" fill="#867a5c" fill-rule="evenodd" image-rendering="auto" shape-rendering="auto" solid-color="#000000" style="block-progression:tb;isolation:auto;mix-blend-mode:normal;text-decoration-color:#000000;text-decoration-line:none;text-decoration-style:solid;text-indent:0;text-transform:none;white-space:normal"/> <path d="m51.786 90.135c1.4791-0.25114 2.8318 0.29653 3.2704 2.8284 1.0112-0.14467 2.0931-0.15972 3.8007 0.97227 0.9447-0.7262 2.0016-0.83526 3.182-0.26516 0.73864 0.92678 1.3419 1.9382 1.149 3.4471-0.0034 1.2941 0.05196 2.6274-1.3258 3.0052-0.97227-0.42761-1.9445-1.2417-2.9168-2.6075-0.11695 0.98971-0.0109 2.6484-0.35355 2.961-0.64684 0.60485-2.6127 0.52589-3.2704-0.61872-0.57738-0.98415-1.4587-1.6644-1.5026-3.182l-0.08839-2.9168-2.5633 0.97227c-0.53983-0.91335-0.4737-1.8267-0.44194-2.74z" fill="#c8bea9" fill-rule="evenodd" stroke="#f00" stroke-width=".29055"/> <path d="m51.707 90.124c1.4791-0.25114 2.8318 0.29653 3.2704 2.8284 1.0112-0.14467 2.0931-0.15972 3.8007 0.97227 0.9447-0.7262 2.0016-0.83526 3.182-0.26516 0.73864 0.92678 1.3419 1.9382 1.149 3.4471-0.0034 1.2941 0.05196 2.6274-1.3258 3.0052-0.97227-0.4276-1.9445-1.2417-2.9168-2.6075-0.11695 0.98971-0.0109 2.6484-0.35355 2.961-0.64684 0.60485-2.6127 0.52589-3.2704-0.61871-0.57738-0.98415-1.4587-1.6644-1.5026-3.182l-0.08839-2.9168-2.5633 0.97227c-0.53983-0.91335-0.4737-1.8267-0.44194-2.74z" fill="url(#y)" fill-rule="evenodd" opacity=".304" stroke="#f00" stroke-width=".29055"/> <path d="m52.39 89.549c-0.33803 0.0066-1.1968 0.05627-1.4313 0.1582 0 0-0.5347 1.1101-0.66406 2.2598-0.154 1.3686-0.19548 2.0264 0.44336 2.9141 0.4345 0.60369 1.319-0.04149 1.9121-0.13672 0.17755-0.0285 0.33904-0.07201 0.5-0.11719-0.02515 0.16935-0.04115 0.33517-0.04102 0.49414 5.87e-4 0.71117 0.02865 1.2772 0.10352 2.2559 0.07487 0.97862 0.7634 2.3149 1.375 2.9844 0.6116 0.66951 1.1528 0.98791 1.8027 1.2012 0.81551 0.26761 2.6185-0.12176 2.7891-1.0918 0.09397-0.53443 0.01364-1.3859-0.05078-2.1328 0.22474 0.01165 0.23255 0.57238 0.64648 1.0879 0.5256 0.65458 1.4542 1.4244 1.8184 1.3711 0.65094-0.0953 1.305-0.52765 1.582-1.0352 0.54412-0.99668 0.69418-2.1584 0.67774-2.7207-0.03609-1.234-0.01158-2.1768-0.81445-3.4961-0.19988-0.32844-0.81517-1.0024-1.4238-1.209-0.60866-0.20654-1.4089-0.28623-1.8008-0.06836l-1.1875 0.66016c-0.4731-0.32195-0.90394-0.64014-1.502-0.81055-0.59801-0.17041-1.3836-0.26498-1.9278-0.13252-0.12436-0.28738-0.04915-1.038-0.4706-1.4808-0.56784-0.59652-1.3222-0.97495-2.3362-0.95508zm0.36554 1.2754c0.25548 0.01944 0.50586 0.07129 0.6875 0.24023 0.34006 0.31628 0.44178 0.78116 0.51562 1.0703-0.26701 0.18712-0.71016 0.697-1.2266 0.99414-0.52142 0.30002-0.62944 0.5203-1.1484 0.56055-0.15304-0.5511-0.14697-1.1178-0.0957-1.4961 0.08628-0.63659 0.30635-1.0517 0.43945-1.2871 0.29429-0.06748 0.57265-0.10147 0.82812-0.08203zm3.0781 2.7578c0.2188-0.10445 0.64612 0.03117 0.91406 0.10938 0.78686 0.22968 0.77754 0.61801 1.3867 1.2051 0.44095 0.42495 0.37582 1.3712 0.38476 2.0566 0.0066 0.50714-0.01037 1.0464-0.08008 1.9004-0.09256 1.134-1.1881 1.2481-1.6992 0.81641-0.26657-0.22516-0.65976-0.46559-0.95703-0.79102-0.31926-0.34949-0.8444-1.0269-1.0625-1.918-0.2239-0.91473-0.34967-1.4794-0.12695-2.0605 0.27711-0.72305 0.72993-1.0748 1.2402-1.3184zm5.1895 0.41016c0.2533 0.06094 0.68178 0.57032 0.76367 0.72266 0.59642 1.1094 0.59727 1.7775 0.54297 2.5098-0.07078 0.9545-0.26534 1.7997-0.92773 1.9297-0.51545 0.10118-1.7107-0.91508-1.8574-1.3867-0.03773-0.12131-0.36442-0.57572-0.38477-1.168-0.02082-0.60627 0.0648-1.1034 0.21875-1.6816 0.09354-0.35131 0.45652-0.85369 0.75574-0.98438 0.31463-0.13741 0.58645-0.01414 0.88879 0.05859z" color="#000000" color-rendering="auto" fill="#7b6e4f" fill-rule="evenodd" image-rendering="auto" shape-rendering="auto" solid-color="#000000" style="block-progression:tb;isolation:auto;mix-blend-mode:normal;text-decoration-color:#000000;text-decoration-line:none;text-decoration-style:solid;text-indent:0;text-transform:none;white-space:normal"/> </g> </svg>